<?xml version="1.0"?>

<svg version="1.1" id="Layer_1" xmlns="http://www.w3.org/2000/svg" xmlns:xlink="http://www.w3.org/1999/xlink" x="0px" y="0px" viewBox="0 0 1000 1000" style="enable-background:new 0 0 1000 1000;" xml:space="preserve">
<style type="text/css">
  .st0{fill:#47B99F;}  /* turkis  · bunn */
  .st1{fill:#1385B3;}  /* blå     · venstre */
  .st2{fill:#E36672;}  /* korall  · høyre */
  .st3{fill:#FFD130;}  /* gul     · topp */
  .st4{fill:#2E8C7A;}  /* mørk turkis · skjøt */
  .st5{fill:#C04F5E;}  /* mørk korall · skjøt */
</style>

<polygon class="st0" points="712.1,924.1 500.3,712.2 500.3,288.6 712.1,500.5 "></polygon>
<polygon class="st1" points="76.5,288.6 288.4,500.5 712.1,500.5 500.2,288.6 "></polygon>
<polygon class="st2" points="924,712.3 712.1,500.4 712.1,76.8 924,288.7 "></polygon>
<polygon class="st3" points="288.4,76.8 500.3,288.7 924,288.7 712.1,76.8 "></polygon>
<polygon class="st4" points="712.1,500.5 500.3,537.1 500.3,500.6 "></polygon>
<polygon class="st5" points="924,288.6 712.1,325.2 712.1,288.7 "></polygon>
<g>
&#x9;<polygon class="st0" points="711.1,924.1 499.3,712.2 499.3,288.6 711.1,500.5 &#x9;"></polygon>
&#x9;<polygon class="st1" points="75.5,288.6 287.4,500.5 711.1,500.5 499.2,288.6 &#x9;"></polygon>
&#x9;<polygon class="st2" points="923,712.3 711.1,500.4 711.1,76.8 923,288.7 &#x9;"></polygon>
&#x9;<polygon class="st3" points="287.4,76.8 499.3,288.7 923,288.7 711.1,76.8 &#x9;"></polygon>
&#x9;<polygon class="st4" points="711.1,500.5 499.3,537.1 499.3,500.6 &#x9;"></polygon>
&#x9;<polygon class="st5" points="923,288.6 711.1,325.2 711.1,288.7 &#x9;"></polygon>
</g>
<polygon class="st0" points="711.1,924.1 499.3,712.2 499.3,288.6 711.1,500.5 "></polygon>
<polygon class="st1" points="75.5,288.6 287.4,500.5 711.1,500.5 499.2,288.6 "></polygon>
<polygon class="st2" points="923,712.3 711.1,500.4 711.1,76.8 923,288.7 "></polygon>
<polygon class="st3" points="287.4,76.8 499.3,288.7 923,288.7 711.1,76.8 "></polygon>
<polygon class="st4" points="711.1,500.5 499.3,537.1 499.3,500.6 "></polygon>
<polygon class="st5" points="923,288.6 711.1,325.2 711.1,288.7 "></polygon>
<g>
&#x9;<polygon class="st0" points="710.1,924.1 498.3,712.2 498.3,288.6 710.1,500.5 &#x9;"></polygon>
&#x9;<polygon class="st1" points="74.5,288.6 286.4,500.5 710.1,500.5 498.2,288.6 &#x9;"></polygon>
&#x9;<polygon class="st2" points="922,712.3 710.1,500.4 710.1,76.8 922,288.7 &#x9;"></polygon>
&#x9;<polygon class="st3" points="286.4,76.8 498.3,288.7 922,288.7 710.1,76.8 &#x9;"></polygon>
&#x9;<polygon class="st4" points="710.1,500.5 498.3,537.1 498.3,500.6 &#x9;"></polygon>
&#x9;<polygon class="st5" points="922,288.6 710.1,325.2 710.1,288.7 &#x9;"></polygon>
</g>
<polygon class="st0" points="710.1,924.1 498.3,712.2 498.3,288.6 710.1,500.5 "></polygon>
<polygon class="st1" points="74.5,288.6 286.4,500.5 710.1,500.5 498.2,288.6 "></polygon>
<polygon class="st2" points="922,712.3 710.1,500.4 710.1,76.8 922,288.7 "></polygon>
<polygon class="st3" points="286.4,76.8 498.3,288.7 922,288.7 710.1,76.8 "></polygon>
<polygon class="st4" points="710.1,500.5 498.3,537.1 498.3,500.6 "></polygon>
<polygon class="st5" points="922,288.6 710.1,325.2 710.1,288.7 "></polygon>
<g>
&#x9;<polygon class="st0" points="709.1,924.1 497.3,712.2 497.3,288.6 709.1,500.5 &#x9;"></polygon>
&#x9;<polygon class="st1" points="73.5,288.6 285.4,500.5 709.1,500.5 497.2,288.6 &#x9;"></polygon>
&#x9;<polygon class="st2" points="921,712.3 709.1,500.4 709.1,76.8 921,288.7 &#x9;"></polygon>
&#x9;<polygon class="st3" points="285.4,76.8 497.3,288.7 921,288.7 709.1,76.8 &#x9;"></polygon>
&#x9;<polygon class="st4" points="709.1,500.5 497.3,537.1 497.3,500.6 &#x9;"></polygon>
&#x9;<polygon class="st5" points="921,288.6 709.1,325.2 709.1,288.7 &#x9;"></polygon>
</g>
</svg>