<?xml version="1.0"?>
<svg id="gruva_hvit" xmlns="http://www.w3.org/2000/svg" viewBox="0 0 1376.75 256.85">
  <defs>
    
  </defs>
  <path class="cls-1" d="M173.22,256.84h83.61v-85.11c0-46.93-38.18-85.11-85.11-85.11-14.96,0-29.67,3.93-42.55,11.38-26.25,15.19-42.56,43.44-42.56,73.73h-3v-88.11h173.22V0H85.11C38.18,0,0,38.19,0,85.12v86.61c0,46.93,38.18,85.11,85.11,85.11,14.96,0,29.68-3.94,42.56-11.39,26.25-15.19,42.55-43.44,42.55-73.72h1.5s0,0,0,0h1.5v85.11Z"></path>
  <path class="cls-1" d="M542.42,127.68c7.45-12.88,11.39-27.6,11.39-42.56C553.81,38.19,515.63,0,468.7,0h-86.61C335.16,0,296.98,38.19,296.98,85.12v171.72h83.61V83.62h88.11v3c-30.3,0-58.55,16.31-73.72,42.56-7.45,12.86-11.39,27.58-11.39,42.55,0,46.93,38.18,85.11,85.11,85.11h85.11v-83.61h-85.11v-1.5h0,0v-1.5c30.29,0,58.54-16.3,73.72-42.55Z"></path>
  <polygon class="cls-1" points="976.36 133.17 931.97 0 848.52 0 934.13 256.84 1018.58 256.84 1104.19 0 1020.74 0 976.36 133.17"></polygon>
  <path class="cls-1" d="M673.57,0h-83.61v171.72c0,20.45,7.36,40.22,20.71,55.66,13.22,15.29,31.45,25.4,51.31,28.46,4.31.67,8.71,1,13.08,1h57.61c5.17,0,10.36-.47,15.43-1.4,40.38-7.4,69.68-42.61,69.68-83.72V0h-83.61v173.22h-60.61V0Z"></path>
  <path class="cls-1" d="M1291.64,86.62c-14.97,0-29.68,3.94-42.55,11.39-12.92,7.47-23.7,18.25-31.17,31.17-7.2,12.45-11.12,26.61-11.38,41.05h86.6v86.61h83.61V85.12C1376.75,38.19,1338.57,0,1291.64,0h-86.61c-46.94,0-85.12,38.17-85.12,85.11v171.72h83.62V83.62h88.11v3Z"></path>
</svg>