<?xml version="1.0"?>

<svg version="1.1" id="Layer_1" xmlns="http://www.w3.org/2000/svg" xmlns:xlink="http://www.w3.org/1999/xlink" x="0px" y="0px" viewBox="0 0 1172 511" style="enable-background:new 0 0 1172 511;" xml:space="preserve">
<style type="text/css">
  .st0{fill:#2A2A2A;}  /* ordmerke «fram» */
  .st1{fill:#47B99F;}  /* turkis  · bunn */
  .st2{fill:#1385B3;}  /* blå     · venstre */
  .st3{fill:#E36672;}  /* korall  · høyre */
  .st4{fill:#FFD130;}  /* gul     · topp */
  .st5{fill:#2E8C7A;}  /* mørk turkis · skjøt */
  .st6{fill:#C04F5E;}  /* mørk korall · skjøt */
</style>

<g>
&#x9;<polygon class="st0" points="931.7,415.3 871.5,355.1 871.5,209.5 931.7,269.7 &#x9;"></polygon>
&#x9;<polygon class="st0" points="811.3,415.3 751,415.3 751,209.5 811.3,269.7 &#x9;"></polygon>
&#x9;<polygon class="st0" points="871.5,209.5 931.7,269.7 811.3,269.7 &#x9;"></polygon>
&#x9;<polygon class="st0" points="751,209.5 811.3,269.7 690.8,269.7 &#x9;"></polygon>
&#x9;<polygon class="st0" points="690.8,415.3 630.5,415.3 630.5,209.5 690.8,269.7 &#x9;"></polygon>
&#x9;<polygon class="st0" points="613,415.3 552.7,355.1 552.7,209.5 613,269.7 &#x9;"></polygon>
&#x9;<polygon class="st0" points="462,415.3 401.7,355.1 552.7,355.1 492.5,415.3 &#x9;"></polygon>
&#x9;<polygon class="st0" points="462,209.5 401.7,269.7 613,269.7 552.7,209.5 &#x9;"></polygon>
&#x9;<polygon class="st0" points="462,415.3 401.7,355.1 401.7,269.7 462,209.5 &#x9;"></polygon>
&#x9;<polygon class="st0" points="325.6,415.3 265.4,355.1 265.4,209.5 325.6,209.5 &#x9;"></polygon>
&#x9;<polygon class="st0" points="325.6,269.7 385.9,209.5 385.9,269.7 &#x9;"></polygon>
&#x9;<polygon class="st0" points="188.1,415.3 127.9,415.3 127.9,149.3 188.1,89 &#x9;"></polygon>
&#x9;<polygon class="st0" points="248.4,209.5 188.1,269.7 188.1,209.5 &#x9;"></polygon>
&#x9;<polygon class="st1" points="992,329.9 931.7,269.7 931.7,149.2 992,209.5 &#x9;"></polygon>
&#x9;<polygon class="st2" points="811.3,149.2 871.5,209.5 992,209.5 931.7,149.2 &#x9;"></polygon>
&#x9;<polygon class="st3" points="1052.2,269.7 992,209.5 992,89 1052.2,149.3 &#x9;"></polygon>
&#x9;<polygon class="st4" points="871.5,89 931.8,149.3 1052.2,149.3 992,89 &#x9;"></polygon>
&#x9;<polygon class="st0" points="248.4,149.3 188.1,89 248.4,89 &#x9;"></polygon>
&#x9;<polygon points="931.7,269.7 871.5,280.1 871.5,269.7 &#x9;"></polygon>
&#x9;<polygon points="811.3,269.7 751,280.1 751,269.7 &#x9;"></polygon>
&#x9;<polygon class="st5" points="992,209.5 931.8,219.9 931.7,209.5 &#x9;"></polygon>
&#x9;<polygon class="st6" points="1052.2,149.2 992,159.6 992,149.2 &#x9;"></polygon>
&#x9;<polyline points="401.7,269.7 462,269.7 462,280.1 &#x9;"></polyline>
&#x9;<polyline points="552.7,209.5 552.7,269.7 542.3,269.7 &#x9;"></polyline>
&#x9;<polyline points="462,415.3 462,355.1 472.4,355.1 &#x9;"></polyline>
&#x9;<polyline points="188.1,269.7 188.1,209.5 198.5,209.5 &#x9;"></polyline>
&#x9;<polygon class="st0" points="930.7,415.3 870.5,355.1 870.5,209.5 930.7,269.7 &#x9;"></polygon>
&#x9;<polygon class="st0" points="810.3,415.3 750,415.3 750,209.5 810.3,269.7 &#x9;"></polygon>
&#x9;<polygon class="st0" points="870.5,209.5 930.7,269.7 810.3,269.7 &#x9;"></polygon>
&#x9;<polygon class="st0" points="750,209.5 810.3,269.7 689.8,269.7 &#x9;"></polygon>
&#x9;<polygon class="st0" points="689.8,415.3 629.5,415.3 629.5,209.5 689.8,269.7 &#x9;"></polygon>
&#x9;<polygon class="st0" points="612,415.3 551.7,355.1 551.7,209.5 612,269.7 &#x9;"></polygon>
&#x9;<polygon class="st0" points="461,415.3 400.7,355.1 551.7,355.1 491.5,415.3 &#x9;"></polygon>
&#x9;<polygon class="st0" points="461,209.5 400.7,269.7 612,269.7 551.7,209.5 &#x9;"></polygon>
&#x9;<polygon class="st0" points="461,415.3 400.7,355.1 400.7,269.7 461,209.5 &#x9;"></polygon>
&#x9;<polygon class="st0" points="324.6,415.3 264.4,355.1 264.4,209.5 324.6,209.5 &#x9;"></polygon>
&#x9;<polygon class="st0" points="324.6,269.7 384.9,209.5 384.9,269.7 &#x9;"></polygon>
&#x9;<polygon class="st0" points="187.1,415.3 126.9,415.3 126.9,149.3 187.1,89 &#x9;"></polygon>
&#x9;<polygon class="st0" points="247.4,209.5 187.1,269.7 187.1,209.5 &#x9;"></polygon>
&#x9;<polygon class="st1" points="991,329.9 930.7,269.7 930.7,149.2 991,209.5 &#x9;"></polygon>
&#x9;<polygon class="st2" points="810.3,149.2 870.5,209.5 991,209.5 930.7,149.2 &#x9;"></polygon>
&#x9;<polygon class="st3" points="1051.2,269.7 991,209.5 991,89 1051.2,149.3 &#x9;"></polygon>
&#x9;<polygon class="st4" points="870.5,89 930.8,149.3 1051.2,149.3 991,89 &#x9;"></polygon>
&#x9;<polygon class="st0" points="247.4,149.3 187.1,89 247.4,89 &#x9;"></polygon>
&#x9;<polygon points="930.7,269.7 870.5,280.1 870.5,269.7 &#x9;"></polygon>
&#x9;<polygon points="810.3,269.7 750,280.1 750,269.7 &#x9;"></polygon>
&#x9;<polygon class="st5" points="991,209.5 930.8,219.9 930.7,209.5 &#x9;"></polygon>
&#x9;<polygon class="st6" points="1051.2,149.2 991,159.6 991,149.2 &#x9;"></polygon>
&#x9;<polyline points="400.7,269.7 461,269.7 461,280.1 &#x9;"></polyline>
&#x9;<polyline points="551.7,209.5 551.7,269.7 541.3,269.7 &#x9;"></polyline>
&#x9;<polyline points="461,415.3 461,355.1 471.4,355.1 &#x9;"></polyline>
&#x9;<polyline points="187.1,269.7 187.1,209.5 197.5,209.5 &#x9;"></polyline>
</g>
</svg>