<svg width="733" height="801" viewBox="0 0 733 801" fill="none" xmlns="http://www.w3.org/2000/svg">
<rect width="732.324" height="801" fill="white"></rect>
<path d="M114.29 66.8498C106.556 71.3066 100.122 77.7403 95.6651 85.4747L95.6651 85.4921C91.295 92.9837 88.8152 101.672 88.8152 110.967L139.765 110.967C130.487 110.967 121.782 113.447 114.29 117.817C106.556 122.274 100.122 128.708 95.6651 136.442C91.295 143.934 88.8152 152.656 88.8152 161.934C88.8152 171.212 91.295 179.917 95.6651 187.409C100.105 195.143 106.556 201.595 114.29 206.051C121.782 210.422 130.505 212.901 139.782 212.901L190.75 212.901C200.045 212.901 208.733 210.422 216.224 206.069C223.976 201.612 230.427 195.161 234.867 187.409C239.237 179.917 241.717 171.212 241.717 161.934L241.717 110.967C241.717 101.672 239.237 92.9663 234.867 85.4747C230.41 77.7403 223.959 71.2892 216.224 66.8324C208.733 62.4797 200.045 59.9998 190.75 59.9998L139.782 59.9998C130.505 59.9998 121.782 62.4797 114.29 66.8498ZM190.75 162.264C190.732 162.16 190.732 162.038 190.732 161.934L139.782 161.934L139.782 110.967L190.732 110.967C190.732 110.863 190.732 110.742 190.75 110.638L190.75 162.264Z" fill="#231F20" stroke="white" stroke-width="1.17617" stroke-miterlimit="10"></path>
<path d="M464.786 66.8498C457.052 71.3066 450.618 77.7403 446.161 85.4747L446.161 85.4921C441.791 92.9837 439.311 101.672 439.311 110.967L490.261 110.967C480.983 110.967 472.278 113.447 464.786 117.817C457.052 122.274 450.618 128.708 446.161 136.442C441.791 143.934 439.311 152.656 439.311 161.934C439.311 171.212 441.791 179.917 446.161 187.409C450.601 195.143 457.052 201.595 464.786 206.051C472.278 210.422 481.001 212.901 490.278 212.901L541.246 212.901C550.541 212.901 559.229 210.422 566.721 206.069C574.472 201.612 580.923 195.161 585.363 187.409C589.733 179.917 592.213 171.212 592.213 161.934L592.213 110.967C592.213 101.672 589.733 92.9663 585.363 85.4747C580.906 77.7403 574.455 71.2892 566.721 66.8324C559.229 62.4797 550.541 59.9998 541.246 59.9998L490.278 59.9998C481.001 59.9998 472.278 62.4797 464.786 66.8498ZM541.246 162.264C541.228 162.16 541.228 162.038 541.228 161.934L490.278 161.934L490.278 110.967L541.228 110.967C541.228 110.863 541.228 110.742 541.246 110.638L541.246 162.264Z" fill="#231F20" stroke="white" stroke-width="1.17617" stroke-miterlimit="10"></path>
<path d="M461.202 431.08L410.268 583.888H359.334L410.268 431.08H461.202Z" fill="#231F20" stroke="#231F20" stroke-width="0.588083" stroke-miterlimit="10"></path>
<path d="M672.324 580.947L621.39 428.14H570.456L621.39 580.947H672.324Z" fill="#231F20" stroke="#231F20" stroke-width="0.588083" stroke-miterlimit="10"></path>
<path d="M60 497.24L60 282.072C60 257.09 77.9777 236.313 101.701 231.967C104.694 231.42 107.782 231.132 110.934 231.132L219.96 231.967C222.624 231.967 225.235 232.173 227.787 232.567C252.204 236.331 270.893 257.437 270.893 282.907L270.893 496.311L219.96 496.311L219.96 282.907L110.934 282.072L110.934 497.24L60 497.24Z" fill="#231F20" stroke="#231F20" stroke-width="0.588083" stroke-miterlimit="10"></path>
<path d="M410.498 434.608L410.497 282.071C410.497 257.09 428.475 236.313 452.198 231.967C455.192 231.42 458.279 231.132 461.431 231.132L570.457 231.967C573.121 231.967 575.732 232.173 578.284 232.567C602.702 236.33 621.391 257.437 621.391 282.906L621.39 434.608L570.456 434.608L570.457 282.906L461.431 282.071L461.432 434.608L410.498 434.608Z" fill="#231F20" stroke="#231F20" stroke-width="0.588083" stroke-miterlimit="10"></path>
<path d="M144.096 516.353H93.521V741H144.096V516.353Z" fill="#231F20" stroke="white" stroke-width="2.35233" stroke-miterlimit="10"></path>
<path d="M502.827 606.329H452.251V741H502.827V606.329Z" fill="#231F20" stroke="white" stroke-width="2.35233" stroke-miterlimit="10"></path>
<path d="M236.425 516.353H185.85V741H236.425V516.353Z" fill="#231F20" stroke="white" stroke-width="2.35233" stroke-miterlimit="10"></path>
<path d="M579.277 606.329H528.702V741H579.277V606.329Z" fill="#231F20" stroke="white" stroke-width="2.35233" stroke-miterlimit="10"></path>
<path d="M265.566 496.003L265.037 445.431L86.4654 447.299L86.9946 497.872L265.566 496.003Z" fill="#231F20"></path>
<path d="M649.613 581.281L649.083 530.709L379.918 533.526L380.447 584.098L649.613 581.281Z" fill="#231F20"></path>
</svg>