<?xml version="1.0"?>
<svg id="may_the_forth" xmlns="http://www.w3.org/2000/svg" viewBox="0 0 501.92 501.94">
  <defs>
    
  </defs>
  <path class="cls-1" d="M338.51,501.77h163.4v-166.33c0-91.72-74.62-166.33-166.33-166.33-29.24,0-57.99,7.69-83.15,22.24-51.3,29.69-83.18,84.9-83.18,144.09h-5.86v-172.19h338.52c0-90.25-73.16-163.42-163.42-163.42h-172.17C74.61-.17,0,74.45,0,166.18v169.26C0,427.16,74.61,501.77,166.32,501.77c29.24,0,58-7.7,83.17-22.26,51.29-29.69,83.16-84.9,83.16-144.07h2.93s0,0,0,0h2.93v166.33Z"></path>
</svg>