<?xml version="1.0"?>

<svg version="1.1" id="Layer_1" xmlns="http://www.w3.org/2000/svg" xmlns:xlink="http://www.w3.org/1999/xlink" x="0px" y="0px" viewBox="0 0 1000 459" style="enable-background:new 0 0 1000 459;" xml:space="preserve">
<polygon points="847.7,381.8 787.4,321.6 787.4,176 847.7,236.2 "></polygon>
<polygon points="727.2,381.8 667,381.8 667,176 727.2,236.2 "></polygon>
<polygon points="787.5,176 847.7,236.2 727.2,236.2 787.5,176 "></polygon>
<polygon points="667,176 727.2,236.2 606.7,236.2 667,176 "></polygon>
<polygon points="606.7,381.8 546.5,381.8 546.5,176 606.7,236.2 "></polygon>
<polygon points="528.9,381.8 468.7,321.6 468.7,176 528.9,236.2 "></polygon>
<polygon points="377.9,381.8 317.7,321.6 468.7,321.6 408.4,381.8 "></polygon>
<polygon points="377.9,176 317.7,236.2 528.9,236.2 468.7,176 "></polygon>
<polygon points="377.9,381.8 317.7,321.6 317.7,236.2 377.9,176 "></polygon>
<polygon points="241.6,381.8 181.3,321.6 181.3,176 241.6,176 "></polygon>
<polygon points="241.6,236.2 301.8,176 301.8,236.2 241.6,236.2 "></polygon>
<polygon points="104.1,381.8 43.8,381.8 43.8,115.8 104.1,55.5 "></polygon>
<polygon points="164.3,176 104.1,236.2 104.1,176 164.3,176 "></polygon>
<polygon points="907.9,296.5 847.7,236.2 847.7,115.7 907.9,176 "></polygon>
<polygon points="727.2,115.7 787.5,176 907.9,176 847.7,115.7 "></polygon>
<polygon points="968.2,236.2 907.9,176 907.9,55.5 968.2,115.8 "></polygon>
<polygon points="787.4,55.5 847.7,115.8 968.2,115.8 907.9,55.5 "></polygon>
<polygon points="164.3,115.8 104.1,55.5 164.3,55.5 164.3,115.8 "></polygon>
<polygon points="847.7,236.2 787.4,246.6 787.4,236.2 "></polygon>
<polygon points="727.2,236.2 667,246.6 667,236.2 "></polygon>
<polygon points="907.9,176 847.7,186.4 847.7,176 "></polygon>
<polygon points="968.2,115.7 907.9,126.1 907.9,115.8 "></polygon>
<polyline points="317.7,236.2 377.9,236.2 377.9,246.6 "></polyline>
<polyline points="468.6,176 468.7,236.2 458.3,236.2 "></polyline>
<polyline points="377.9,381.8 377.9,321.6 388.3,321.6 "></polyline>
<polyline points="104.1,236.2 104.1,176 114.4,176 "></polyline>
</svg>