<svg xmlns="http://www.w3.org/2000/svg" xmlns:xlink="http://www.w3.org/1999/xlink" width="1014" zoomAndPan="magnify" viewBox="0 0 760.5 322.499991" height="430" preserveAspectRatio="xMidYMid meet" version="1.0"><defs><g></g><clipPath id="13fc3a119a"><path d="M 0.183594 9 L 34 9 L 34 137 L 0.183594 137 Z M 0.183594 9 " clip-rule="nonzero"></path></clipPath><clipPath id="3c0ee09922"><rect x="0" width="34" y="0" height="128"></rect></clipPath><clipPath id="215d144d68"><path d="M 25 15 L 123 15 L 123 172.070312 L 25 172.070312 Z M 25 15 " clip-rule="nonzero"></path></clipPath><clipPath id="1ac52b240c"><rect x="0" width="98" y="0" height="158"></rect></clipPath><clipPath id="38b5095ec9"><rect x="0" width="66" y="0" height="126"></rect></clipPath><clipPath id="c629d98bf0"><rect x="0" width="77" y="0" height="134"></rect></clipPath><clipPath id="3aa207ed00"><path d="M 246 0.738281 L 338 0.738281 L 338 154 L 246 154 Z M 246 0.738281 " clip-rule="nonzero"></path></clipPath><clipPath id="e10be56ee0"><rect x="0" width="92" y="0" height="154"></rect></clipPath><clipPath id="ead9b61e7b"><rect x="0" width="60" y="0" height="117"></rect></clipPath><clipPath id="a12993fa43"><path d="M 377 0.738281 L 432 0.738281 L 432 115 L 377 115 Z M 377 0.738281 " clip-rule="nonzero"></path></clipPath><clipPath id="b8d4f3cc81"><rect x="0" width="55" y="0" height="115"></rect></clipPath><clipPath id="6ded9fdc14"><rect x="0" width="84" y="0" height="152"></rect></clipPath><clipPath id="2923c6804d"><rect x="0" width="68" y="0" height="125"></rect></clipPath><clipPath id="e67add836d"><rect x="0" width="74" y="0" height="130"></rect></clipPath><clipPath id="a88fa99724"><path d="M 623 7 L 677.851562 7 L 677.851562 124 L 623 124 Z M 623 7 " clip-rule="nonzero"></path></clipPath><clipPath id="816b68d290"><rect x="0" width="55" y="0" height="117"></rect></clipPath><clipPath id="44ff177338"><rect x="0" width="678" y="0" height="173"></rect></clipPath></defs><g fill="#3f3d3b" fill-opacity="1"><g transform="translate(181.639397, 247.07273)"><g><path d="M 28.53125 -65.65625 C 35.519531 -65.65625 41.644531 -64.316406 46.90625 -61.640625 C 52.164062 -58.960938 56.226562 -55.117188 59.09375 -50.109375 C 61.957031 -45.109375 63.390625 -39.269531 63.390625 -32.59375 C 63.390625 -25.914062 61.957031 -20.117188 59.09375 -15.203125 C 56.226562 -10.296875 52.164062 -6.535156 46.90625 -3.921875 C 41.644531 -1.304688 35.519531 0 28.53125 0 L 7.078125 0 L 7.078125 -65.65625 Z M 28.53125 -8.78125 C 36.21875 -8.78125 42.101562 -10.859375 46.1875 -15.015625 C 50.28125 -19.171875 52.328125 -25.03125 52.328125 -32.59375 C 52.328125 -40.207031 50.28125 -46.15625 46.1875 -50.4375 C 42.101562 -54.726562 36.21875 -56.875 28.53125 -56.875 L 17.859375 -56.875 L 17.859375 -8.78125 Z M 28.53125 -8.78125 "></path></g></g></g><g fill="#3f3d3b" fill-opacity="1"><g transform="translate(250.500164, 247.07273)"><g><path d="M 46.671875 -13.421875 L 19.171875 -13.421875 L 14.453125 0 L 3.21875 0 L 26.734375 -65.75 L 39.203125 -65.75 L 62.734375 0 L 51.390625 0 Z M 43.640625 -22.203125 L 32.96875 -52.71875 L 22.203125 -22.203125 Z M 43.640625 -22.203125 "></path></g></g></g><g fill="#3f3d3b" fill-opacity="1"><g transform="translate(318.227424, 247.07273)"><g><path d="M 54.609375 -46.765625 C 52.898438 -50.035156 50.535156 -52.503906 47.515625 -54.171875 C 44.492188 -55.847656 41 -56.6875 37.03125 -56.6875 C 32.6875 -56.6875 28.8125 -55.707031 25.40625 -53.75 C 22.007812 -51.800781 19.347656 -49.03125 17.421875 -45.4375 C 15.503906 -41.851562 14.546875 -37.695312 14.546875 -32.96875 C 14.546875 -28.25 15.503906 -24.078125 17.421875 -20.453125 C 19.347656 -16.828125 22.007812 -14.035156 25.40625 -12.078125 C 28.8125 -10.128906 32.6875 -9.15625 37.03125 -9.15625 C 42.882812 -9.15625 47.640625 -10.789062 51.296875 -14.0625 C 54.953125 -17.34375 57.1875 -21.785156 58 -27.390625 L 33.34375 -27.390625 L 33.34375 -36 L 69.53125 -36 L 69.53125 -27.578125 C 68.832031 -22.484375 67.019531 -17.789062 64.09375 -13.5 C 61.164062 -9.21875 57.351562 -5.800781 52.65625 -3.25 C 47.96875 -0.707031 42.757812 0.5625 37.03125 0.5625 C 30.863281 0.5625 25.226562 -0.867188 20.125 -3.734375 C 15.019531 -6.597656 10.972656 -10.578125 7.984375 -15.671875 C 4.992188 -20.773438 3.5 -26.539062 3.5 -32.96875 C 3.5 -39.394531 4.992188 -45.15625 7.984375 -50.25 C 10.972656 -55.351562 15.035156 -59.335938 20.171875 -62.203125 C 25.304688 -65.066406 30.925781 -66.5 37.03125 -66.5 C 44.019531 -66.5 50.238281 -64.78125 55.6875 -61.34375 C 61.132812 -57.914062 65.085938 -53.054688 67.546875 -46.765625 Z M 54.609375 -46.765625 "></path></g></g></g><g fill="#3f3d3b" fill-opacity="1"><g transform="translate(393.133567, 247.07273)"><g><path d="M 17.859375 -56.96875 L 17.859375 -37.6875 L 40.53125 -37.6875 L 40.53125 -28.90625 L 17.859375 -28.90625 L 17.859375 -8.78125 L 43.359375 -8.78125 L 43.359375 0 L 7.078125 0 L 7.078125 -65.75 L 43.359375 -65.75 L 43.359375 -56.96875 Z M 17.859375 -56.96875 "></path></g></g></g><g fill="#3f3d3b" fill-opacity="1"><g transform="translate(444.519418, 247.07273)"><g><path d="M 61.03125 0 L 50.25 0 L 17.859375 -49.03125 L 17.859375 0 L 7.078125 0 L 7.078125 -65.75 L 17.859375 -65.75 L 50.25 -16.8125 L 50.25 -65.75 L 61.03125 -65.75 Z M 61.03125 0 "></path></g></g></g><g fill="#3f3d3b" fill-opacity="1"><g transform="translate(514.513693, 247.07273)"><g><path d="M 17.859375 -56.96875 L 17.859375 -37.6875 L 40.53125 -37.6875 L 40.53125 -28.90625 L 17.859375 -28.90625 L 17.859375 -8.78125 L 43.359375 -8.78125 L 43.359375 0 L 7.078125 0 L 7.078125 -65.75 L 43.359375 -65.75 L 43.359375 -56.96875 Z M 17.859375 -56.96875 "></path></g></g></g><g transform="matrix(1, 0, 0, 1, 50, 40)"><g clip-path="url(#44ff177338)"><g clip-path="url(#13fc3a119a)"><g transform="matrix(1, 0, 0, 1, -0.000000000000014211, 9)"><g clip-path="url(#3c0ee09922)"><g fill="#3f3d3b" fill-opacity="1"><g transform="translate(0.482299, 103.1346)"><g><path d="M 18.359375 -1.96875 C 18.285156 -0.875 17.664062 -0.328125 16.5 -0.328125 C 15.476562 -0.328125 13.984375 -0.5625 12.015625 -1.03125 C 10.046875 -1.507812 8.1875 -2.019531 6.4375 -2.5625 C 4.695312 -3.113281 3.570312 -3.5 3.0625 -3.71875 C 2.550781 -3.9375 2.148438 -4.335938 1.859375 -4.921875 C 1.566406 -5.503906 1.421875 -6.085938 1.421875 -6.671875 C 1.492188 -9.796875 1.800781 -13.707031 2.34375 -18.40625 C 2.894531 -23.101562 3.625 -28.128906 4.53125 -33.484375 C 5.445312 -38.835938 6.429688 -44.082031 7.484375 -49.21875 C 8.535156 -54.351562 9.609375 -58.941406 10.703125 -62.984375 C 11.796875 -67.035156 12.78125 -70.078125 13.65625 -72.109375 C 14.019531 -73.128906 14.785156 -73.640625 15.953125 -73.640625 C 16.316406 -73.640625 17.132812 -73.472656 18.40625 -73.140625 C 19.6875 -72.816406 21.144531 -72.414062 22.78125 -71.9375 C 24.414062 -71.46875 25.90625 -71.035156 27.25 -70.640625 C 28.601562 -70.242188 29.535156 -69.972656 30.046875 -69.828125 C 31.066406 -69.460938 31.578125 -68.769531 31.578125 -67.75 C 31.578125 -67.675781 31.554688 -67.566406 31.515625 -67.421875 C 31.484375 -67.273438 31.46875 -67.203125 31.46875 -67.203125 C 30.59375 -64.722656 29.570312 -61.132812 28.40625 -56.4375 C 27.238281 -51.738281 26.019531 -46.382812 24.75 -40.375 C 23.476562 -34.363281 22.273438 -28.0625 21.140625 -21.46875 C 20.015625 -14.875 19.085938 -8.375 18.359375 -1.96875 Z M 18.359375 -1.96875 "></path></g></g></g></g></g></g><g clip-path="url(#215d144d68)"><g transform="matrix(1, 0, 0, 1, 25, 15)"><g clip-path="url(#1ac52b240c)"><g fill="#3f3d3b" fill-opacity="1"><g transform="translate(5.438414, 118.425897)"><g><path d="M 65.859375 -74.734375 C 66.359375 -75.773438 67.359375 -76.1875 68.859375 -75.96875 C 69.441406 -75.875 70.441406 -75.570312 71.859375 -75.0625 C 73.273438 -74.550781 74.832031 -73.957031 76.53125 -73.28125 C 78.226562 -72.601562 79.789062 -71.921875 81.21875 -71.234375 C 82.65625 -70.554688 83.6875 -69.992188 84.3125 -69.546875 C 85.320312 -68.890625 85.738281 -67.976562 85.5625 -66.8125 C 85.550781 -66.726562 85.507812 -66.582031 85.4375 -66.375 C 85.363281 -66.164062 85.328125 -66.0625 85.328125 -66.0625 C 83.972656 -63.269531 82.207031 -59.304688 80.03125 -54.171875 C 77.851562 -49.035156 75.5 -43.128906 72.96875 -36.453125 C 70.4375 -29.785156 67.9375 -22.769531 65.46875 -15.40625 C 63.007812 -8.050781 60.851562 -0.75 59 6.5 C 58.820312 7.070312 58.472656 7.507812 57.953125 7.8125 C 57.441406 8.125 56.894531 8.234375 56.3125 8.140625 C 55.5625 8.035156 54.304688 7.722656 52.546875 7.203125 C 50.796875 6.679688 48.859375 6.070312 46.734375 5.375 C 44.609375 4.675781 42.617188 3.953125 40.765625 3.203125 C 38.910156 2.453125 37.488281 1.742188 36.5 1.078125 C 35.78125 0.640625 35.238281 0.0703125 34.875 -0.625 C 34.507812 -1.320312 34.289062 -1.976562 34.21875 -2.59375 C 33.976562 -3.8125 33.859375 -5.722656 33.859375 -8.328125 C 33.867188 -10.941406 33.941406 -13.878906 34.078125 -17.140625 C 34.222656 -20.410156 34.394531 -23.71875 34.59375 -27.0625 C 34.789062 -30.40625 34.992188 -33.472656 35.203125 -36.265625 C 35.410156 -39.054688 35.546875 -41.257812 35.609375 -42.875 C 35.691406 -43.457031 35.566406 -43.773438 35.234375 -43.828125 C 34.984375 -43.859375 34.769531 -43.59375 34.59375 -43.03125 C 32.445312 -36.59375 30.203125 -29.53125 27.859375 -21.84375 C 25.515625 -14.164062 23.367188 -6.628906 21.421875 0.765625 C 21.242188 1.335938 20.890625 1.796875 20.359375 2.140625 C 19.835938 2.492188 19.289062 2.625 18.71875 2.53125 C 17.96875 2.425781 16.625 1.96875 14.6875 1.15625 C 12.757812 0.351562 10.796875 -0.507812 8.796875 -1.4375 C 6.804688 -2.375 5.335938 -3.128906 4.390625 -3.703125 C 3.679688 -4.148438 3.210938 -4.734375 2.984375 -5.453125 C 2.753906 -6.171875 2.6875 -6.863281 2.78125 -7.53125 C 3.40625 -11.03125 4.492188 -15.414062 6.046875 -20.6875 C 7.597656 -25.96875 9.367188 -31.578125 11.359375 -37.515625 C 13.359375 -43.453125 15.421875 -49.253906 17.546875 -54.921875 C 19.671875 -60.585938 21.707031 -65.664062 23.65625 -70.15625 C 25.613281 -74.644531 27.226562 -77.988281 28.5 -80.1875 C 29.1875 -81.363281 30.238281 -81.847656 31.65625 -81.640625 C 32.25 -81.554688 33.378906 -81.257812 35.046875 -80.75 C 36.710938 -80.25 38.644531 -79.640625 40.84375 -78.921875 C 43.050781 -78.203125 45.144531 -77.457031 47.125 -76.6875 C 49.113281 -75.925781 50.648438 -75.210938 51.734375 -74.546875 C 53.210938 -73.554688 53.925781 -72.289062 53.875 -70.75 C 53.757812 -68.8125 53.546875 -66.238281 53.234375 -63.03125 C 52.921875 -59.832031 52.582031 -56.445312 52.21875 -52.875 C 51.863281 -49.300781 51.515625 -45.9375 51.171875 -42.78125 C 50.828125 -39.632812 50.566406 -37.175781 50.390625 -35.40625 C 50.285156 -34.738281 50.398438 -34.378906 50.734375 -34.328125 C 50.898438 -34.304688 51.117188 -34.613281 51.390625 -35.25 C 52.960938 -40.65625 54.648438 -45.976562 56.453125 -51.21875 C 58.265625 -56.46875 59.992188 -61.1875 61.640625 -65.375 C 63.296875 -69.570312 64.703125 -72.691406 65.859375 -74.734375 Z M 65.859375 -74.734375 "></path></g></g></g></g></g></g><g transform="matrix(1, 0, 0, 1, 118, 14)"><g clip-path="url(#38b5095ec9)"><g fill="#3f3d3b" fill-opacity="1"><g transform="translate(0.740734, 101.003764)"><g><path d="M 45.9375 -71.015625 C 46.226562 -71.941406 47.019531 -72.40625 48.3125 -72.40625 C 48.8125 -72.40625 49.6875 -72.28125 50.9375 -72.03125 C 52.195312 -71.78125 53.578125 -71.472656 55.078125 -71.109375 C 56.585938 -70.753906 57.988281 -70.378906 59.28125 -69.984375 C 60.570312 -69.585938 61.503906 -69.25 62.078125 -68.96875 C 63.015625 -68.539062 63.484375 -67.820312 63.484375 -66.8125 C 63.484375 -66.738281 63.460938 -66.613281 63.421875 -66.4375 C 63.390625 -66.257812 63.375 -66.171875 63.375 -66.171875 C 62.582031 -63.660156 61.59375 -60.109375 60.40625 -55.515625 C 59.226562 -50.921875 57.992188 -45.664062 56.703125 -39.75 C 55.410156 -33.832031 54.191406 -27.628906 53.046875 -21.140625 C 51.898438 -14.648438 51.003906 -8.25 50.359375 -1.9375 C 50.285156 -1.4375 50.050781 -1.023438 49.65625 -0.703125 C 49.257812 -0.378906 48.8125 -0.21875 48.3125 -0.21875 C 47.664062 -0.21875 46.570312 -0.320312 45.03125 -0.53125 C 43.488281 -0.75 41.785156 -1.019531 39.921875 -1.34375 C 38.054688 -1.664062 36.296875 -2.023438 34.640625 -2.421875 C 32.992188 -2.816406 31.703125 -3.226562 30.765625 -3.65625 C 30.117188 -3.945312 29.597656 -4.359375 29.203125 -4.890625 C 28.816406 -5.429688 28.550781 -5.953125 28.40625 -6.453125 C 28.039062 -7.460938 27.695312 -9.0625 27.375 -11.25 C 27.0625 -13.4375 26.757812 -15.910156 26.46875 -18.671875 C 26.175781 -21.429688 25.90625 -24.226562 25.65625 -27.0625 C 25.40625 -29.894531 25.191406 -32.492188 25.015625 -34.859375 C 24.835938 -37.222656 24.675781 -39.085938 24.53125 -40.453125 C 24.53125 -40.953125 24.382812 -41.203125 24.09375 -41.203125 C 23.882812 -41.203125 23.742188 -40.953125 23.671875 -40.453125 C 22.671875 -34.785156 21.664062 -28.582031 20.65625 -21.84375 C 19.65625 -15.101562 18.796875 -8.503906 18.078125 -2.046875 C 18.003906 -1.546875 17.769531 -1.113281 17.375 -0.75 C 16.976562 -0.394531 16.53125 -0.21875 16.03125 -0.21875 C 15.382812 -0.21875 14.203125 -0.429688 12.484375 -0.859375 C 10.765625 -1.285156 9.003906 -1.769531 7.203125 -2.3125 C 5.410156 -2.851562 4.085938 -3.300781 3.234375 -3.65625 C 2.585938 -3.945312 2.117188 -4.378906 1.828125 -4.953125 C 1.546875 -5.523438 1.40625 -6.097656 1.40625 -6.671875 C 1.46875 -9.679688 1.820312 -13.5 2.46875 -18.125 C 3.113281 -22.75 3.898438 -27.679688 4.828125 -32.921875 C 5.765625 -38.160156 6.769531 -43.289062 7.84375 -48.3125 C 8.925781 -53.332031 10.003906 -57.847656 11.078125 -61.859375 C 12.160156 -65.878906 13.09375 -68.894531 13.875 -70.90625 C 14.3125 -71.976562 15.140625 -72.515625 16.359375 -72.515625 C 16.859375 -72.515625 17.84375 -72.40625 19.3125 -72.1875 C 20.78125 -71.976562 22.484375 -71.710938 24.421875 -71.390625 C 26.359375 -71.066406 28.203125 -70.707031 29.953125 -70.3125 C 31.710938 -69.914062 33.097656 -69.503906 34.109375 -69.078125 C 35.472656 -68.429688 36.222656 -67.460938 36.359375 -66.171875 C 36.503906 -64.523438 36.648438 -62.335938 36.796875 -59.609375 C 36.941406 -56.878906 37.082031 -53.988281 37.21875 -50.9375 C 37.363281 -47.894531 37.488281 -45.023438 37.59375 -42.328125 C 37.707031 -39.640625 37.800781 -37.546875 37.875 -36.046875 C 37.875 -35.472656 38.015625 -35.1875 38.296875 -35.1875 C 38.441406 -35.1875 38.585938 -35.472656 38.734375 -36.046875 C 39.378906 -40.773438 40.128906 -45.453125 40.984375 -50.078125 C 41.847656 -54.710938 42.707031 -58.894531 43.5625 -62.625 C 44.425781 -66.351562 45.21875 -69.148438 45.9375 -71.015625 Z M 45.9375 -71.015625 "></path></g></g></g></g></g><g transform="matrix(1, 0, 0, 1, 183, 25)"><g clip-path="url(#c629d98bf0)"><g fill="#3f3d3b" fill-opacity="1"><g transform="translate(1.9251, 104.951917)"><g><path d="M 42.125 -57.359375 C 40.175781 -57.472656 38.25 -56.664062 36.34375 -54.9375 C 34.4375 -53.21875 32.660156 -50.882812 31.015625 -47.9375 C 29.367188 -44.988281 28.023438 -41.757812 26.984375 -38.25 C 25.953125 -34.738281 25.335938 -31.300781 25.140625 -27.9375 C 24.929688 -24.550781 25.128906 -21.9375 25.734375 -20.09375 C 26.347656 -18.257812 27.171875 -16.957031 28.203125 -16.1875 C 29.242188 -15.414062 30.328125 -14.992188 31.453125 -14.921875 C 33.472656 -14.796875 35.421875 -15.597656 37.296875 -17.328125 C 39.179688 -19.054688 40.882812 -21.4375 42.40625 -24.46875 C 43.9375 -27.5 45.207031 -30.859375 46.21875 -34.546875 C 47.226562 -38.242188 47.851562 -42.003906 48.09375 -45.828125 C 48.289062 -49.128906 47.847656 -51.84375 46.765625 -53.96875 C 45.691406 -56.101562 44.144531 -57.234375 42.125 -57.359375 Z M 32.703125 2.078125 C 29.859375 1.898438 26.835938 1.171875 23.640625 -0.109375 C 20.441406 -1.390625 17.53125 -3.007812 14.90625 -4.96875 C 12.28125 -6.9375 10.347656 -8.9375 9.109375 -10.96875 C 7.460938 -13.613281 6.410156 -16.695312 5.953125 -20.21875 C 5.492188 -23.75 5.351562 -27.015625 5.53125 -30.015625 C 5.707031 -32.859375 6.28125 -36.203125 7.25 -40.046875 C 8.226562 -43.898438 9.609375 -47.835938 11.390625 -51.859375 C 13.179688 -55.890625 15.398438 -59.609375 18.046875 -63.015625 C 20.703125 -66.429688 23.796875 -69.140625 27.328125 -71.140625 C 30.867188 -73.148438 34.847656 -74.023438 39.265625 -73.765625 C 40.617188 -73.679688 42.472656 -73.226562 44.828125 -72.40625 C 47.191406 -71.59375 49.6875 -70.503906 52.3125 -69.140625 C 54.9375 -67.785156 57.320312 -66.269531 59.46875 -64.59375 C 61.625 -62.925781 63.210938 -61.203125 64.234375 -59.421875 C 65.734375 -56.691406 66.65625 -53.8125 67 -50.78125 C 67.351562 -47.75 67.4375 -44.703125 67.25 -41.640625 C 67.0625 -38.484375 66.445312 -34.925781 65.40625 -30.96875 C 64.375 -27.007812 62.945312 -23.035156 61.125 -19.046875 C 59.3125 -15.054688 57.046875 -11.410156 54.328125 -8.109375 C 51.617188 -4.816406 48.457031 -2.226562 44.84375 -0.34375 C 41.238281 1.539062 37.191406 2.347656 32.703125 2.078125 Z M 32.703125 2.078125 "></path></g></g></g></g></g><g clip-path="url(#3aa207ed00)"><g transform="matrix(1, 0, 0, 1, 246, -0.000000000000007105)"><g clip-path="url(#e10be56ee0)"><g fill="#3f3d3b" fill-opacity="1"><g transform="translate(14.569644, 126.308035)"><g><path d="M 9.359375 -14.84375 C 8.515625 -18.96875 7.695312 -23.601562 6.90625 -28.75 C 6.113281 -33.894531 5.40625 -39.203125 4.78125 -44.671875 C 4.15625 -50.140625 3.640625 -55.425781 3.234375 -60.53125 C 2.828125 -65.632812 2.566406 -70.207031 2.453125 -74.25 C 2.335938 -78.300781 2.398438 -81.4375 2.640625 -83.65625 C 2.742188 -84.1875 3 -84.6875 3.40625 -85.15625 C 3.8125 -85.625 4.304688 -85.894531 4.890625 -85.96875 C 5.890625 -86.082031 7.5 -86.066406 9.71875 -85.921875 C 11.9375 -85.773438 14.207031 -85.546875 16.53125 -85.234375 C 18.851562 -84.921875 20.585938 -84.539062 21.734375 -84.09375 C 22.703125 -83.78125 23.347656 -83.347656 23.671875 -82.796875 C 23.992188 -82.242188 24.195312 -81.640625 24.28125 -80.984375 C 24.3125 -80.734375 24.328125 -80.4375 24.328125 -80.09375 C 24.328125 -79.75 24.328125 -79.578125 24.328125 -79.578125 C 24.304688 -74.929688 24.585938 -68.070312 25.171875 -59 C 25.765625 -49.9375 26.800781 -39.660156 28.28125 -28.171875 C 28.28125 -28.171875 28.316406 -28.046875 28.390625 -27.796875 C 28.460938 -27.554688 28.582031 -27.445312 28.75 -27.46875 C 28.914062 -27.488281 29.046875 -27.613281 29.140625 -27.84375 C 29.242188 -28.070312 29.296875 -28.1875 29.296875 -28.1875 C 30.285156 -33.363281 31.335938 -38.8125 32.453125 -44.53125 C 33.578125 -50.25 34.734375 -55.890625 35.921875 -61.453125 C 37.109375 -67.015625 38.238281 -72.140625 39.3125 -76.828125 C 40.382812 -81.523438 41.320312 -85.445312 42.125 -88.59375 C 42.40625 -89.71875 43.085938 -90.347656 44.171875 -90.484375 C 44.847656 -90.566406 46.035156 -90.414062 47.734375 -90.03125 C 49.429688 -89.644531 51.242188 -89.144531 53.171875 -88.53125 C 55.109375 -87.925781 56.898438 -87.300781 58.546875 -86.65625 C 60.191406 -86.019531 61.285156 -85.519531 61.828125 -85.15625 C 62.835938 -84.507812 63.398438 -83.734375 63.515625 -82.828125 C 63.546875 -82.566406 63.550781 -82.332031 63.53125 -82.125 C 63.519531 -81.914062 63.515625 -81.8125 63.515625 -81.8125 C 62.898438 -79.101562 62.066406 -75.65625 61.015625 -71.46875 C 59.972656 -67.289062 58.800781 -62.691406 57.5 -57.671875 C 56.195312 -52.660156 54.820312 -47.566406 53.375 -42.390625 C 51.9375 -37.222656 50.550781 -32.296875 49.21875 -27.609375 C 47.894531 -22.921875 46.648438 -18.75 45.484375 -15.09375 C 44.316406 -11.445312 43.347656 -8.648438 42.578125 -6.703125 C 42.378906 -6.171875 41.984375 -5.71875 41.390625 -5.34375 C 40.804688 -4.976562 40.222656 -4.757812 39.640625 -4.6875 C 38.054688 -4.5 36.035156 -4.570312 33.578125 -4.90625 C 31.128906 -5.238281 28.53125 -5.765625 25.78125 -6.484375 C 23.03125 -7.210938 20.421875 -8 17.953125 -8.84375 C 15.484375 -9.6875 13.476562 -10.519531 11.9375 -11.34375 C 10.664062 -12.03125 9.804688 -13.195312 9.359375 -14.84375 Z M 9.359375 -14.84375 "></path></g></g></g></g></g></g><g transform="matrix(1, 0, 0, 1, 320, 26)"><g clip-path="url(#ead9b61e7b)"><g fill="#3f3d3b" fill-opacity="1"><g transform="translate(1.545571, 94.30255)"><g><path d="M 46.671875 -63.25 C 47.734375 -62.71875 48.363281 -61.859375 48.5625 -60.671875 C 48.757812 -59.410156 48.921875 -57.335938 49.046875 -54.453125 C 49.179688 -51.578125 49.296875 -48.253906 49.390625 -44.484375 C 49.492188 -40.710938 49.546875 -36.773438 49.546875 -32.671875 C 49.546875 -28.566406 49.492188 -24.507812 49.390625 -20.5 C 49.296875 -16.5 49.179688 -12.84375 49.046875 -9.53125 C 48.921875 -6.21875 48.722656 -3.601562 48.453125 -1.6875 C 48.328125 -0.625 47.566406 -0.09375 46.171875 -0.09375 C 45.710938 -0.09375 44.882812 -0.160156 43.6875 -0.296875 C 42.5 -0.429688 41.222656 -0.597656 39.859375 -0.796875 C 38.503906 -0.992188 37.265625 -1.191406 36.140625 -1.390625 C 35.015625 -1.585938 34.222656 -1.753906 33.765625 -1.890625 C 32.703125 -2.222656 32.171875 -2.984375 32.171875 -4.171875 C 32.171875 -4.171875 32.1875 -4.679688 32.21875 -5.703125 C 32.25 -6.734375 32.296875 -7.894531 32.359375 -9.1875 C 32.429688 -10.476562 32.484375 -11.617188 32.515625 -12.609375 C 32.546875 -13.597656 32.5625 -14.09375 32.5625 -14.09375 C 32.5625 -15.019531 32.035156 -15.484375 30.984375 -15.484375 C 30.648438 -15.484375 29.800781 -15.453125 28.4375 -15.390625 C 27.082031 -15.328125 25.628906 -15.273438 24.078125 -15.234375 C 22.523438 -15.203125 21.25 -15.15625 20.25 -15.09375 C 19.59375 -15.03125 19.128906 -14.878906 18.859375 -14.640625 C 18.597656 -14.410156 18.300781 -13.929688 17.96875 -13.203125 C 17.175781 -11.421875 16.414062 -9.398438 15.6875 -7.140625 C 14.957031 -4.890625 14.328125 -3.101562 13.796875 -1.78125 C 13.535156 -0.988281 12.941406 -0.59375 12.015625 -0.59375 C 11.347656 -0.59375 10.269531 -0.859375 8.78125 -1.390625 C 7.289062 -1.921875 5.800781 -2.53125 4.3125 -3.21875 C 2.820312 -3.914062 1.75 -4.460938 1.09375 -4.859375 C 0.226562 -5.328125 -0.203125 -6.054688 -0.203125 -7.046875 C -0.203125 -7.316406 -0.179688 -7.53125 -0.140625 -7.6875 C -0.109375 -7.851562 -0.09375 -7.9375 -0.09375 -7.9375 C 0.226562 -8.9375 0.617188 -10.128906 1.078125 -11.515625 C 1.546875 -12.910156 1.984375 -14.269531 2.390625 -15.59375 C 2.515625 -15.988281 2.578125 -16.382812 2.578125 -16.78125 C 2.578125 -17.445312 2.476562 -18.320312 2.28125 -19.40625 C 2.082031 -20.5 1.882812 -21.539062 1.6875 -22.53125 C 1.488281 -23.53125 1.390625 -24.257812 1.390625 -24.71875 C 1.390625 -25.644531 1.820312 -26.304688 2.6875 -26.703125 C 3.28125 -26.910156 3.675781 -27.03125 3.875 -27.0625 C 4.070312 -27.09375 4.367188 -27.140625 4.765625 -27.203125 C 5.429688 -27.335938 5.941406 -27.585938 6.296875 -27.953125 C 6.660156 -28.316406 6.976562 -28.726562 7.25 -29.1875 C 7.976562 -30.71875 8.90625 -32.738281 10.03125 -35.25 C 11.15625 -37.769531 12.378906 -40.484375 13.703125 -43.390625 C 15.023438 -46.304688 16.347656 -49.1875 17.671875 -52.03125 C 18.992188 -54.875 20.265625 -57.421875 21.484375 -59.671875 C 22.710938 -61.921875 23.789062 -63.578125 24.71875 -64.640625 C 25.382812 -65.304688 26.015625 -65.640625 26.609375 -65.640625 C 27.335938 -65.640625 28.226562 -65.503906 29.28125 -65.234375 C 30.34375 -64.972656 31.140625 -64.84375 31.671875 -64.84375 C 32.265625 -64.84375 32.664062 -65.269531 32.875 -66.125 C 33 -66.988281 33.394531 -67.421875 34.0625 -67.421875 C 34.71875 -67.421875 35.875 -67.171875 37.53125 -66.671875 C 39.1875 -66.179688 40.890625 -65.617188 42.640625 -64.984375 C 44.398438 -64.359375 45.742188 -63.78125 46.671875 -63.25 Z M 24.421875 -30.984375 C 24.421875 -30.984375 24.390625 -30.898438 24.328125 -30.734375 C 24.265625 -30.566406 24.234375 -30.414062 24.234375 -30.28125 C 24.234375 -29.6875 24.660156 -29.390625 25.515625 -29.390625 C 25.710938 -29.390625 26.222656 -29.40625 27.046875 -29.4375 C 27.878906 -29.46875 28.722656 -29.5 29.578125 -29.53125 C 30.441406 -29.570312 31.007812 -29.59375 31.28125 -29.59375 C 32.207031 -29.59375 32.800781 -30.1875 33.0625 -31.375 C 33.132812 -32.769531 33.171875 -34.3125 33.171875 -36 C 33.171875 -37.6875 33.171875 -39.359375 33.171875 -41.015625 L 33.171875 -48.75 C 33.171875 -49.476562 33.035156 -49.84375 32.765625 -49.84375 C 32.703125 -49.84375 32.617188 -49.773438 32.515625 -49.640625 C 32.421875 -49.515625 32.335938 -49.382812 32.265625 -49.25 C 31.140625 -46.800781 29.929688 -44.003906 28.640625 -40.859375 C 27.347656 -37.710938 25.941406 -34.421875 24.421875 -30.984375 Z M 24.421875 -30.984375 "></path></g></g></g></g></g><g clip-path="url(#a12993fa43)"><g transform="matrix(1, 0, 0, 1, 377, -0.000000000000007105)"><g clip-path="url(#b8d4f3cc81)"><g fill="#3f3d3b" fill-opacity="1"><g transform="translate(1.316578, 92.194143)"><g><path d="M 45.703125 -18.96875 C 45.703125 -15.625 44.734375 -12.476562 42.796875 -9.53125 C 40.867188 -6.582031 38.332031 -4.191406 35.1875 -2.359375 C 32.039062 -0.523438 28.601562 0.390625 24.875 0.390625 C 23.300781 0.390625 21.332031 0.128906 18.96875 -0.390625 C 16.613281 -0.910156 14.320312 -1.613281 12.09375 -2.5 C 9.863281 -3.382812 8.09375 -4.382812 6.78125 -5.5 C 4.75 -7.207031 3.375 -9.09375 2.65625 -11.15625 C 1.9375 -13.21875 1.410156 -15.363281 1.078125 -17.59375 C 1.078125 -17.59375 1.0625 -17.722656 1.03125 -17.984375 C 1 -18.242188 0.984375 -18.472656 0.984375 -18.671875 C 0.984375 -19.785156 1.507812 -20.671875 2.5625 -21.328125 C 5.632812 -22.503906 8.132812 -23.253906 10.0625 -23.578125 C 12 -23.910156 13.132812 -24.078125 13.46875 -24.078125 C 13.988281 -24.078125 14.410156 -23.929688 14.734375 -23.640625 C 15.066406 -23.347656 15.300781 -23.035156 15.4375 -22.703125 C 16.351562 -20.273438 17.460938 -18.304688 18.765625 -16.796875 C 20.078125 -15.296875 21.75 -14.546875 23.78125 -14.546875 C 25.6875 -14.546875 27.03125 -14.859375 27.8125 -15.484375 C 28.601562 -16.109375 29 -16.78125 29 -17.5 C 29 -18.613281 28.3125 -19.628906 26.9375 -20.546875 C 25.5625 -21.460938 23.890625 -22.410156 21.921875 -23.390625 C 20.210938 -24.242188 18.40625 -25.210938 16.5 -26.296875 C 14.601562 -27.378906 12.835938 -28.65625 11.203125 -30.125 C 9.566406 -31.601562 8.238281 -33.335938 7.21875 -35.328125 C 6.207031 -37.328125 5.703125 -39.640625 5.703125 -42.265625 C 5.703125 -44.816406 6.238281 -47.503906 7.3125 -50.328125 C 8.394531 -53.148438 9.867188 -55.753906 11.734375 -58.140625 C 13.609375 -60.535156 15.773438 -62.484375 18.234375 -63.984375 C 20.691406 -65.492188 23.328125 -66.25 26.140625 -66.25 C 27.648438 -66.25 29.484375 -66.003906 31.640625 -65.515625 C 33.804688 -65.023438 36.019531 -64.335938 38.28125 -63.453125 C 40.539062 -62.566406 42.65625 -61.46875 44.625 -60.15625 C 46.59375 -58.84375 48.179688 -57.398438 49.390625 -55.828125 C 50.609375 -54.253906 51.21875 -52.519531 51.21875 -50.625 C 51.21875 -49.507812 51.019531 -48.242188 50.625 -46.828125 C 50.226562 -45.421875 49.785156 -44.113281 49.296875 -42.90625 C 48.804688 -41.695312 48.429688 -40.828125 48.171875 -40.296875 C 47.835938 -39.640625 47.503906 -39.210938 47.171875 -39.015625 C 46.847656 -38.828125 46.359375 -38.695312 45.703125 -38.625 C 44.921875 -38.5 43.757812 -38.398438 42.21875 -38.328125 C 40.675781 -38.265625 39.21875 -38.21875 37.84375 -38.1875 C 36.46875 -38.15625 35.519531 -38.140625 35 -38.140625 C 34.082031 -38.140625 33.441406 -38.285156 33.078125 -38.578125 C 32.710938 -38.878906 32.53125 -39.222656 32.53125 -39.609375 C 32.53125 -39.867188 32.644531 -40.503906 32.875 -41.515625 C 33.101562 -42.535156 33.347656 -43.6875 33.609375 -44.96875 C 33.878906 -46.25 34.015625 -47.378906 34.015625 -48.359375 C 34.015625 -49.867188 33.765625 -50.929688 33.265625 -51.546875 C 32.773438 -52.171875 32.070312 -52.484375 31.15625 -52.484375 C 29.78125 -52.484375 28.503906 -51.941406 27.328125 -50.859375 C 26.148438 -49.785156 25.195312 -48.523438 24.46875 -47.078125 C 23.75 -45.640625 23.390625 -44.363281 23.390625 -43.25 C 23.390625 -41.414062 24.222656 -39.957031 25.890625 -38.875 C 27.566406 -37.789062 29.320312 -36.726562 31.15625 -35.6875 C 33.78125 -34.238281 36.1875 -32.875 38.375 -31.59375 C 40.570312 -30.320312 42.34375 -28.75 43.6875 -26.875 C 45.03125 -25.007812 45.703125 -22.375 45.703125 -18.96875 Z M 45.703125 -18.96875 "></path></g></g></g></g></g></g><g transform="matrix(1, 0, 0, 1, 411, 2)"><g clip-path="url(#6ded9fdc14)"><g fill="#3f3d3b" fill-opacity="1"><g transform="translate(4.776024, 115.727217)"><g><path d="M 22.546875 -32.796875 C 23.273438 -32.691406 23.769531 -32.410156 24.03125 -31.953125 C 24.289062 -31.492188 24.421875 -30.96875 24.421875 -30.375 C 24.273438 -27.738281 24.203125 -25.164062 24.203125 -22.65625 C 24.203125 -20.15625 24.351562 -18.113281 24.65625 -16.53125 C 24.96875 -14.945312 25.453125 -14.109375 26.109375 -14.015625 C 27.410156 -13.816406 28.804688 -14.789062 30.296875 -16.9375 C 31.796875 -19.09375 33.332031 -21.992188 34.90625 -25.640625 C 36.488281 -29.285156 38.046875 -33.304688 39.578125 -37.703125 C 41.117188 -42.109375 42.59375 -46.515625 44 -50.921875 C 45.414062 -55.335938 46.664062 -59.378906 47.75 -63.046875 C 48.84375 -66.722656 49.710938 -69.597656 50.359375 -71.671875 L 51.0625 -73.953125 C 51.226562 -74.515625 51.5625 -74.925781 52.0625 -75.1875 C 52.5625 -75.445312 53.101562 -75.535156 53.6875 -75.453125 C 53.925781 -75.410156 54.785156 -75.175781 56.265625 -74.75 C 57.742188 -74.320312 59.421875 -73.820312 61.296875 -73.25 C 63.171875 -72.675781 64.921875 -72.117188 66.546875 -71.578125 C 68.171875 -71.046875 69.257812 -70.65625 69.8125 -70.40625 C 70.4375 -70.144531 70.832031 -69.734375 71 -69.171875 C 71.164062 -68.609375 71.207031 -68.039062 71.125 -67.46875 C 71.03125 -66.820312 70.617188 -65.171875 69.890625 -62.515625 C 69.160156 -59.867188 68.210938 -56.609375 67.046875 -52.734375 C 65.890625 -48.867188 64.5625 -44.734375 63.0625 -40.328125 C 61.570312 -35.921875 60.003906 -31.585938 58.359375 -27.328125 C 56.722656 -23.066406 55.117188 -19.257812 53.546875 -15.90625 C 49.910156 -8.28125 45.820312 -2.828125 41.28125 0.453125 C 36.75 3.742188 32.40625 5.082031 28.25 4.46875 C 27.34375 4.332031 25.90625 4.007812 23.9375 3.5 C 21.96875 3 19.828125 2.222656 17.515625 1.171875 C 15.210938 0.128906 13.035156 -1.207031 10.984375 -2.84375 C 8.941406 -4.488281 7.351562 -6.523438 6.21875 -8.953125 C 5.582031 -10.296875 5.097656 -12.078125 4.765625 -14.296875 C 4.429688 -16.515625 4.238281 -18.859375 4.1875 -21.328125 C 4.144531 -23.796875 4.257812 -25.96875 4.53125 -27.84375 C 4.53125 -27.84375 4.554688 -28.003906 4.609375 -28.328125 C 4.660156 -28.660156 4.695312 -28.90625 4.71875 -29.0625 C 5.09375 -30.4375 5.921875 -31.273438 7.203125 -31.578125 C 7.722656 -31.671875 8.722656 -31.789062 10.203125 -31.9375 C 11.691406 -32.09375 13.320312 -32.25 15.09375 -32.40625 C 16.863281 -32.5625 18.460938 -32.675781 19.890625 -32.75 C 21.328125 -32.832031 22.210938 -32.847656 22.546875 -32.796875 Z M 22.546875 -32.796875 "></path></g></g></g></g></g><g transform="matrix(1, 0, 0, 1, 483, 3)"><g clip-path="url(#2923c6804d)"><g fill="#3f3d3b" fill-opacity="1"><g transform="translate(1.57, 100.580573)"><g><path d="M 36.90625 -57.125 C 35.039062 -57.125 33.242188 -56.242188 31.515625 -54.484375 C 29.796875 -52.734375 28.238281 -50.40625 26.84375 -47.5 C 25.445312 -44.59375 24.351562 -41.4375 23.5625 -38.03125 C 22.769531 -34.625 22.375 -31.304688 22.375 -28.078125 C 22.375 -24.847656 22.710938 -22.375 23.390625 -20.65625 C 24.078125 -18.9375 24.941406 -17.734375 25.984375 -17.046875 C 27.023438 -16.367188 28.082031 -16.03125 29.15625 -16.03125 C 31.09375 -16.03125 32.90625 -16.90625 34.59375 -18.65625 C 36.28125 -20.414062 37.769531 -22.785156 39.0625 -25.765625 C 40.351562 -28.742188 41.375 -32.023438 42.125 -35.609375 C 42.875 -39.203125 43.25 -42.828125 43.25 -46.484375 C 43.25 -49.640625 42.675781 -52.203125 41.53125 -54.171875 C 40.382812 -56.140625 38.84375 -57.125 36.90625 -57.125 Z M 31.3125 0.109375 C 28.582031 0.109375 25.65625 -0.410156 22.53125 -1.453125 C 19.414062 -2.492188 16.546875 -3.875 13.921875 -5.59375 C 11.304688 -7.3125 9.351562 -9.101562 8.0625 -10.96875 C 6.34375 -13.40625 5.160156 -16.289062 4.515625 -19.625 C 3.867188 -22.96875 3.546875 -26.070312 3.546875 -28.9375 C 3.546875 -31.664062 3.90625 -34.894531 4.625 -38.625 C 5.34375 -42.351562 6.4375 -46.191406 7.90625 -50.140625 C 9.375 -54.085938 11.273438 -57.765625 13.609375 -61.171875 C 15.941406 -64.578125 18.738281 -67.335938 22 -69.453125 C 25.269531 -71.566406 29.019531 -72.625 33.25 -72.625 C 34.539062 -72.625 36.332031 -72.300781 38.625 -71.65625 C 40.914062 -71.007812 43.351562 -70.113281 45.9375 -68.96875 C 48.519531 -67.820312 50.882812 -66.507812 53.03125 -65.03125 C 55.1875 -63.5625 56.804688 -62.003906 57.890625 -60.359375 C 59.460938 -57.847656 60.5 -55.15625 61 -52.28125 C 61.507812 -49.414062 61.765625 -46.515625 61.765625 -43.578125 C 61.765625 -40.566406 61.382812 -37.140625 60.625 -33.296875 C 59.875 -29.460938 58.742188 -25.585938 57.234375 -21.671875 C 55.734375 -17.765625 53.78125 -14.160156 51.375 -10.859375 C 48.96875 -7.566406 46.097656 -4.914062 42.765625 -2.90625 C 39.429688 -0.894531 35.613281 0.109375 31.3125 0.109375 Z M 31.3125 0.109375 "></path></g></g></g></g></g><g transform="matrix(1, 0, 0, 1, 548, 13)"><g clip-path="url(#e67add836d)"><g fill="#3f3d3b" fill-opacity="1"><g transform="translate(2.440472, 101.503029)"><g><path d="M 50.578125 -68.75 C 50.921875 -69.6875 51.738281 -70.113281 53.03125 -70.03125 C 53.539062 -70 54.421875 -69.816406 55.671875 -69.484375 C 56.921875 -69.160156 58.289062 -68.769531 59.78125 -68.3125 C 61.28125 -67.863281 62.671875 -67.398438 63.953125 -66.921875 C 65.234375 -66.441406 66.15625 -66.039062 66.71875 -65.71875 C 67.625 -65.226562 68.050781 -64.472656 68 -63.453125 C 67.988281 -63.378906 67.957031 -63.253906 67.90625 -63.078125 C 67.863281 -62.910156 67.84375 -62.828125 67.84375 -62.828125 C 66.894531 -60.335938 65.679688 -56.816406 64.203125 -52.265625 C 62.734375 -47.710938 61.171875 -42.492188 59.515625 -36.609375 C 57.859375 -30.722656 56.253906 -24.546875 54.703125 -18.078125 C 53.160156 -11.617188 51.867188 -5.226562 50.828125 1.09375 C 50.734375 1.59375 50.476562 1.992188 50.0625 2.296875 C 49.644531 2.597656 49.179688 2.734375 48.671875 2.703125 C 48.023438 2.660156 46.929688 2.484375 45.390625 2.171875 C 43.847656 1.859375 42.144531 1.484375 40.28125 1.046875 C 38.425781 0.617188 36.679688 0.15625 35.046875 -0.34375 C 33.410156 -0.84375 32.128906 -1.335938 31.203125 -1.828125 C 30.585938 -2.160156 30.09375 -2.601562 29.71875 -3.15625 C 29.351562 -3.71875 29.117188 -4.257812 29.015625 -4.78125 C 28.710938 -5.8125 28.460938 -7.4375 28.265625 -9.65625 C 28.066406 -11.882812 27.90625 -14.394531 27.78125 -17.1875 C 27.664062 -19.988281 27.566406 -22.820312 27.484375 -25.6875 C 27.398438 -28.5625 27.335938 -31.195312 27.296875 -33.59375 C 27.265625 -36 27.21875 -37.890625 27.15625 -39.265625 C 27.175781 -39.765625 27.046875 -40.023438 26.765625 -40.046875 C 26.546875 -40.054688 26.390625 -39.8125 26.296875 -39.3125 C 24.929688 -33.664062 23.539062 -27.476562 22.125 -20.75 C 20.707031 -14.019531 19.441406 -7.425781 18.328125 -0.96875 C 18.222656 -0.457031 17.960938 -0.0351562 17.546875 0.296875 C 17.128906 0.628906 16.664062 0.78125 16.15625 0.75 C 15.507812 0.707031 14.332031 0.421875 12.625 -0.109375 C 10.914062 -0.648438 9.171875 -1.25 7.390625 -1.90625 C 5.617188 -2.5625 4.3125 -3.09375 3.46875 -3.5 C 2.84375 -3.820312 2.398438 -4.28125 2.140625 -4.875 C 1.878906 -5.46875 1.769531 -6.054688 1.8125 -6.640625 C 2.0625 -9.671875 2.648438 -13.492188 3.578125 -18.109375 C 4.515625 -22.734375 5.609375 -27.65625 6.859375 -32.875 C 8.117188 -38.09375 9.441406 -43.195312 10.828125 -48.1875 C 12.222656 -53.1875 13.582031 -57.675781 14.90625 -61.65625 C 16.238281 -65.632812 17.351562 -68.609375 18.25 -70.578125 C 18.757812 -71.648438 19.628906 -72.148438 20.859375 -72.078125 C 21.367188 -72.046875 22.351562 -71.875 23.8125 -71.5625 C 25.28125 -71.257812 26.976562 -70.882812 28.90625 -70.4375 C 30.84375 -69.988281 32.6875 -69.515625 34.4375 -69.015625 C 36.1875 -68.515625 37.550781 -68.015625 38.53125 -67.515625 C 39.875 -66.785156 40.578125 -65.765625 40.640625 -64.453125 C 40.691406 -62.785156 40.703125 -60.578125 40.671875 -57.828125 C 40.648438 -55.078125 40.617188 -52.160156 40.578125 -49.078125 C 40.535156 -45.992188 40.488281 -43.09375 40.4375 -40.375 C 40.382812 -37.664062 40.347656 -35.546875 40.328125 -34.015625 C 40.296875 -33.429688 40.425781 -33.132812 40.71875 -33.125 C 40.863281 -33.113281 41.019531 -33.394531 41.1875 -33.96875 C 42.125 -38.695312 43.164062 -43.363281 44.3125 -47.96875 C 45.46875 -52.570312 46.59375 -56.726562 47.6875 -60.4375 C 48.78125 -64.144531 49.742188 -66.914062 50.578125 -68.75 Z M 50.578125 -68.75 "></path></g></g></g></g></g><g clip-path="url(#a88fa99724)"><g transform="matrix(1, 0, 0, 1, 623, 7)"><g clip-path="url(#816b68d290)"><g fill="#3f3d3b" fill-opacity="1"><g transform="translate(1.239091, 94.709502)"><g><path d="M 46.640625 -19.359375 C 46.640625 -15.941406 45.648438 -12.726562 43.671875 -9.71875 C 41.703125 -6.71875 39.113281 -4.28125 35.90625 -2.40625 C 32.695312 -0.53125 29.1875 0.40625 25.375 0.40625 C 23.769531 0.40625 21.765625 0.140625 19.359375 -0.390625 C 16.953125 -0.929688 14.609375 -1.648438 12.328125 -2.546875 C 10.054688 -3.453125 8.253906 -4.472656 6.921875 -5.609375 C 4.847656 -7.347656 3.441406 -9.269531 2.703125 -11.375 C 1.972656 -13.488281 1.441406 -15.679688 1.109375 -17.953125 C 1.109375 -17.953125 1.085938 -18.082031 1.046875 -18.34375 C 1.015625 -18.613281 1 -18.851562 1 -19.0625 C 1 -20.195312 1.535156 -21.097656 2.609375 -21.765625 C 5.753906 -22.960938 8.3125 -23.726562 10.28125 -24.0625 C 12.25 -24.40625 13.398438 -24.578125 13.734375 -24.578125 C 14.273438 -24.578125 14.710938 -24.425781 15.046875 -24.125 C 15.378906 -23.820312 15.613281 -23.503906 15.75 -23.171875 C 16.6875 -20.691406 17.820312 -18.679688 19.15625 -17.140625 C 20.488281 -15.609375 22.191406 -14.84375 24.265625 -14.84375 C 26.210938 -14.84375 27.585938 -15.160156 28.390625 -15.796875 C 29.191406 -16.429688 29.59375 -17.117188 29.59375 -17.859375 C 29.59375 -18.992188 28.890625 -20.023438 27.484375 -20.953125 C 26.078125 -21.890625 24.367188 -22.863281 22.359375 -23.875 C 20.628906 -24.738281 18.789062 -25.722656 16.84375 -26.828125 C 14.90625 -27.929688 13.097656 -29.234375 11.421875 -30.734375 C 9.753906 -32.242188 8.398438 -34.015625 7.359375 -36.046875 C 6.328125 -38.085938 5.8125 -40.445312 5.8125 -43.125 C 5.8125 -45.738281 6.363281 -48.484375 7.46875 -51.359375 C 8.570312 -54.234375 10.078125 -56.890625 11.984375 -59.328125 C 13.890625 -61.765625 16.09375 -63.75 18.59375 -65.28125 C 21.101562 -66.820312 23.796875 -67.59375 26.671875 -67.59375 C 28.210938 -67.59375 30.085938 -67.34375 32.296875 -66.84375 C 34.503906 -66.34375 36.757812 -65.640625 39.0625 -64.734375 C 41.375 -63.835938 43.53125 -62.71875 45.53125 -61.375 C 47.539062 -60.039062 49.160156 -58.570312 50.390625 -56.96875 C 51.628906 -55.363281 52.25 -53.59375 52.25 -51.65625 C 52.25 -50.519531 52.046875 -49.234375 51.640625 -47.796875 C 51.242188 -46.359375 50.796875 -45.019531 50.296875 -43.78125 C 49.796875 -42.539062 49.410156 -41.65625 49.140625 -41.125 C 48.804688 -40.457031 48.472656 -40.019531 48.140625 -39.8125 C 47.804688 -39.613281 47.304688 -39.484375 46.640625 -39.421875 C 45.835938 -39.285156 44.648438 -39.179688 43.078125 -39.109375 C 41.503906 -39.046875 40.015625 -39 38.609375 -38.96875 C 37.210938 -38.9375 36.242188 -38.921875 35.703125 -38.921875 C 34.765625 -38.921875 34.113281 -39.066406 33.75 -39.359375 C 33.382812 -39.660156 33.203125 -40.015625 33.203125 -40.421875 C 33.203125 -40.691406 33.316406 -41.34375 33.546875 -42.375 C 33.785156 -43.414062 34.035156 -44.585938 34.296875 -45.890625 C 34.566406 -47.191406 34.703125 -48.34375 34.703125 -49.34375 C 34.703125 -50.882812 34.453125 -51.972656 33.953125 -52.609375 C 33.453125 -53.242188 32.734375 -53.5625 31.796875 -53.5625 C 30.390625 -53.5625 29.082031 -53.007812 27.875 -51.90625 C 26.675781 -50.800781 25.707031 -49.507812 24.96875 -48.03125 C 24.238281 -46.5625 23.875 -45.257812 23.875 -44.125 C 23.875 -42.257812 24.722656 -40.773438 26.421875 -39.671875 C 28.128906 -38.566406 29.921875 -37.476562 31.796875 -36.40625 C 34.472656 -34.9375 36.929688 -33.550781 39.171875 -32.25 C 41.410156 -30.945312 43.210938 -29.34375 44.578125 -27.4375 C 45.953125 -25.53125 46.640625 -22.835938 46.640625 -19.359375 Z M 46.640625 -19.359375 "></path></g></g></g></g></g></g></g></g></svg>